<svg xmlns="http://www.w3.org/2000/svg" width="32" height="32" viewBox="0 0 8.467 8.467" id="quran"><g transform="translate(104.67 -397.657) scale(.26458)"><path fill="#283842" fill-rule="evenodd" d="m -391.60742,1508.954 a 0.50004997,0.50004097 0 0 0 -0.49805,0.5 v 15.998 a 0.50004997,0.50004097 0 0 0 0.3418,0.4746 l 2.1582,0.7208 v 1.8105 c 3e-5,0.2761 0.22387,0.5 0.5,0.5 0.27655,0 0.49414,0.2172 0.49414,0.5 0,0.283 -0.21745,0.4981 -0.49414,0.4981 -0.27613,0 -0.49997,0.224 -0.5,0.5 v 1.998 c 2.9e-4,0.3403 0.333,0.5809 0.65625,0.4746 l 7.85547,-2.5723 c 0.30848,0.5041 0.85876,0.8477 1.48828,0.8477 0.62952,0 1.1798,-0.3436 1.48828,-0.8477 l 7.85547,2.5723 c 0.32325,0.1063 0.65596,-0.1343 0.65625,-0.4746 v -1.998 c -3e-5,-0.276 -0.22387,-0.5 -0.5,-0.5 -0.27669,0 -0.49414,-0.2151 -0.49414,-0.4981 0,-0.2828 0.21759,-0.5 0.49414,-0.5 0.27613,0 0.49997,-0.2239 0.5,-0.5 v -1.8105 l 2.1582,-0.7208 a 0.50004997,0.50004097 0 0 0 0.3418,-0.4746 v -15.998 a 0.50004997,0.50004097 0 0 0 -0.51562,-0.5 0.50004997,0.50004097 0 0 0 -0.13086,0.022 l -1.83594,0.5625 a 0.50015653,0.50014753 0 1 0 0.29101,0.957 l 1.19141,-0.3652 v 14.9609 l -10.07226,3.3594 c -0.31793,-0.4497 -0.83976,-0.7461 -1.42774,-0.7461 -0.58851,0 -1.10989,0.2976 -1.42773,0.7481 l -10.07227,-3.3614 v -14.9609 l 1.18945,0.3652 a 0.50044251,0.5004335 0 1 0 0.29297,-0.957 l -1.83593,-0.5625 a 0.50004997,0.50004097 0 0 0 -0.14844,-0.022 z m 12.00195,19.75 c 0.42013,0 0.75,0.3298 0.75,0.75 0,0.4201 -0.32987,0.75 -0.75,0.75 -0.42014,0 -0.75,-0.3299 -0.75,-0.75 0,-0.4202 0.32986,-0.75 0.75,-0.75 z" color="#000" font-family="sans-serif" font-weight="400" overflow="visible" style="line-height:normal;font-variant-ligatures:normal;font-variant-position:normal;font-variant-caps:normal;font-variant-numeric:normal;font-variant-alternates:normal;font-feature-settings:normal;text-indent:0;text-align:start;text-decoration-line:none;text-decoration-style:solid;text-decoration-color:#000;text-transform:none;text-orientation:mixed;shape-padding:0;isolation:auto;mix-blend-mode:normal"></path><path fill="#283842" fill-rule="evenodd" d="m -387.60934,1507.4542 a 0.50004997,0.50004097 0 0 0 -0.49609,0.5 v 13.9996 a 0.50004997,0.50004097 0 0 0 0.35548,0.4786 l 8.00195,2.4002 a 0.50004997,0.50004097 0 0 0 0.28711,0 l 8,-2.4002 a 0.50004997,0.50004097 0 0 0 0.35547,-0.4786 v -13.9996 a 0.50004997,0.50004097 0 0 0 -0.64453,-0.4786 l -7.85547,2.3554 -7.85547,-2.3554 a 0.50004997,0.50004097 0 0 0 -0.14844,-0.022 z" color="#000" font-family="sans-serif" font-weight="400" overflow="visible" style="line-height:normal;font-variant-ligatures:normal;font-variant-position:normal;font-variant-caps:normal;font-variant-numeric:normal;font-variant-alternates:normal;font-feature-settings:normal;text-indent:0;text-align:start;text-decoration-line:none;text-decoration-style:solid;text-decoration-color:#000;text-transform:none;text-orientation:mixed;shape-padding:0;isolation:auto;mix-blend-mode:normal"></path><path fill="#32a577" fill-rule="evenodd" d="M-388.60352 1526.9813l7.23243 2.4122-7.23438 2.371.004-.9042c.58128-.1756.99023-.7765.99023-1.4024 0-.6259-.38551-1.1897-.99023-1.4121zM-370.60742 1526.9813l-.002 1.0645c-.60471.2224-.99023.7862-.99023 1.4121 0 .6259.40895 1.2269.99023 1.4024l.004.9042-7.23633-2.371zM-387.10543 1508.626l7.35548 2.207a.50004997.50004097 0 0 0 .28906 0l7.35547-2.207v12.9548l-7.5 2.25-7.5-2.25z" color="#000" font-family="sans-serif" font-weight="400" overflow="visible" style="line-height:normal;font-variant-ligatures:normal;font-variant-position:normal;font-variant-caps:normal;font-variant-numeric:normal;font-variant-alternates:normal;font-feature-settings:normal;text-indent:0;text-align:start;text-decoration-line:none;text-decoration-style:solid;text-decoration-color:#000;text-transform:none;text-orientation:mixed;shape-padding:0;isolation:auto;mix-blend-mode:normal"></path><path fill="#283842" fill-rule="evenodd" style="line-height:normal;font-variant-ligatures:normal;font-variant-position:normal;font-variant-caps:normal;font-variant-numeric:normal;font-variant-alternates:normal;font-feature-settings:normal;text-indent:0;text-align:start;text-decoration-line:none;text-decoration-style:solid;text-decoration-color:#000;text-transform:none;text-orientation:mixed;shape-padding:0;isolation:auto;mix-blend-mode:normal" d="m -389.60934,1504.9542 a 0.50005,0.500041 0 0 0 -0.49609,0.5 v 17.9996 a 0.50005,0.500041 0 0 0 0.35548,0.4786 l 10.00195,2.9998 a 0.50005,0.500041 0 0 0 0.28711,0 l 10,-2.9998 a 0.50005,0.500041 0 0 0 0.35547,-0.4786 v -17.9996 a 0.50005,0.500041 0 0 0 -0.64453,-0.4786 l -9.85547,2.9571 -9.85547,-2.9571 a 0.50005,0.500041 0 0 0 -0.14844,-0.022 z m 0.50391,1.1718 9.35548,2.8066 a 0.50005,0.500041 0 0 0 0.28906,0 l 9.35547,-2.8066 v 16.9548 l -9.5,2.8514 -9.5,-2.8514 z" color="#000" font-family="sans-serif" font-weight="400" overflow="visible"></path><path fill="#283842" fill-rule="evenodd" style="line-height:normal;font-variant-ligatures:normal;font-variant-position:normal;font-variant-caps:normal;font-variant-numeric:normal;font-variant-alternates:normal;font-feature-settings:normal;text-indent:0;text-align:start;text-decoration-line:none;text-decoration-style:solid;text-decoration-color:#000;text-transform:none;text-orientation:mixed;shape-padding:0;isolation:auto;mix-blend-mode:normal" d="m -380.10543,1508.454 v 17.9998 h 1 v -17.9998 z" color="#000" font-family="sans-serif" font-weight="400" overflow="visible"></path></g></svg>